<svg xmlns="http://www.w3.org/2000/svg" width="818" height="1155" fill="none">
	<path fill="#000" d="M157 860c59 2 74-30 104-23l25 12-2 7-5 18 23 41-6 33-40 10h-54l-28-29-17-69Z"/>
	<path fill="#fff" fill-rule="evenodd" d="M424 462c-25-19-87-27-113-9s-29 48-41 75c-12-6-31 2-34 13-4 5-4 19-7 25C106 586 87 682 72 792c-20 110-64 221-45 335l-6 12c-5 7 1 18 10 17l34-3h101c162 2 323 6 485 7 6 0 9-5 8-11l-5-31c38 10 79 13 117 1 3-3-6-1-7-1 35-24 24-75 21-111-19-125-26-263-101-369-32-44-79-78-134-86h-1c-16-2-34-3-48-11-15-13-22-36-39-36-5 0-12 7-20 11-1-10-7-19-8-27-1-10 1-18-10-27ZM159 795c34-24 124-12 126-11 4 3 6 3 9 7l7 1c5 2 1 8-4 6 3 14-7 24-11 39v17c0 7-7 14-6 20 4 21 26 42 17 63-6 12-24 18-36 22-25 10-69 0-83-22-8-11-17-40-21-49l-1-14c-3-36-5-74 3-79Z" clip-rule="evenodd"/>
	<path fill="#000" fill-rule="evenodd" d="M468 503c-2-2-6 0-4 3a112 112 0 0 0 20 28l-20 23c-8 10-16 21-25 30s-19 15-31 19l-2 1c-12 4-25 10-31 21-2 2 1 5 3 4 12-8 26-9 38-14 13-4 23-11 33-21l25-29c9-10 17-19 27-27 15 10 32 14 50 19h1c18 5 35 10 51 17 15 7 29 14 41 25 12 12 22 26 30 40 20 32 34 67 46 103a1054 1054 0 0 1 47 198c1 10 1 21 5 30 1 5 4 6 7 6l1 8a587 587 0 0 1 1 85v3c-1 13-4 27-13 37a58 58 0 0 1-40 13c-31 0-62-15-90-28a975 975 0 0 1-146-83l-11-8c2-2 3-5 1-7 11-10 16-27 17-41l-3-33-2-17-1-7a918 918 0 0 0 142 62l3 1a367 367 0 0 0 49 12l-49-19-2-2h1l28-8c9-3 18-5 26-9v-1c-9-1-19 2-28 3l-3 1-17 3c0-2-1-3-3-5-16-12-14-36-16-54l-1-13a1187 1187 0 0 0-11-70c0 29 2 57 3 86v5c1 18 1 36 13 50h-5l-3 6a1637 1637 0 0 1-124-60c-3-2-6-1-8 2h-1c-4-3-10-1-14 2v1c-4-2-9-5-13-9-8-7-15-16-21-25-11-17-20-36-35-50a98 98 0 0 0-43-22v-1c-1-1-2-2-3-1l-2-3a50 50 0 0 0-7-9c-3-4-7-8-11-10-9-6-19-3-28 0l-17 6h-1c-4 1-9 3-11 7v6c-41-11-85-6-124 6l-4 3c-4 23-6 47-4 70 2 21 6 41 15 59v1c8 17 21 38 40 44 11 3 24 1 36 1l35-3c10-2 19-6 25-14 5-7 8-16 11-25l3 1 11 8c7 7 13 16 20 22s15 11 23 14c17 8 35 11 54 15h1c13 3 27 6 39 14l3 5c-2 2-3 5-1 8 5 8 14 13 22 18l1 1a1086 1086 0 0 0 157 86c-2 8-1 17-2 25l-1 2c0 3 1 5 3 7v1-1 1h1v1h8v-1c3-1 5-5 4-8l-7-24h2l3 2c30 13 63 23 95 15 15-4 28-12 35-26 8-13 9-28 9-43a348 348 0 0 0-10-91c2-1 3-3 3-6 2-11-1-23-2-34a1004 1004 0 0 0-53-215l-2-3c-13-35-28-68-49-98a145 145 0 0 0-80-60c-16-6-32-9-48-12-17-2-35-3-50-10 2-4 0-8-3-11-11-7-22-16-32-25ZM112 823h-2a547 547 0 0 1 18 191v2l-1 67-1 33 3 18v16c-1 3 5 3 5 0v-4l4-17a444 444 0 0 0 6-50v-6c2-43 2-86-1-129l-1-3c-3-40-8-84-30-118Zm115-254c2-1 1-3 0-3l-3 1c-21 5-42 11-61 20-20 9-36 23-49 40-26 33-37 74-45 114L42 876l-2 8c-8 42-17 84-23 126v3c-6 44-10 89-3 132 1 9 15 7 15-2a663 663 0 0 1 5-147l11-62 1-3 10-52 4-26 24-117v-2c9-37 21-76 46-106s62-45 97-59Zm92 394h-3c-3 5-3 11-3 17a456 456 0 0 0-2 95v4c1 11 2 23 7 33 2 3 7 2 8-1 4-12 2-26 1-38v-9a1488 1488 0 0 1-5-79v-6c-1-5-1-11-3-16Zm408 17-1-2c-5-4-11-12-19-11-2 0-4 2-4 5 2 6 8 9 12 13a281 281 0 0 1 26 25l2 2c1 1 11 10 10 12l1 1c4-1 4-5 2-8-3-8-9-14-13-20l-16-17ZM304 802c3-8 15-7 22-7 17 1 36 6 52 14s26 21 36 36v1c10 15 19 32 33 42 8 5 17 10 26 12 0 1 1 2 3 2l10 1v48c0 8-1 17-5 25-3 5-7 9-12 13-12-8-25-12-39-15-16-4-33-7-49-12-8-3-15-6-22-11s-12-11-18-18l-1-1c-5-6-12-13-20-16-7-3-16-4-22-9-3-2-3-6-4-9l12-1h2l11-2v-2l-13-2h-13c0-3-1-5-3-8s-6-8-6-12l1-3v-1l1-1c3 1 6 0 7-3l18 1h23v-2c-6-3-15-4-22-5l-12-2-9-1c-7-9-3-23 7-27 3 2 7 1 10 1l12-1c8 0 17 2 24 1 2 0 3-2 2-3-6-4-15-6-23-7h-1l-9-1c-1-2-2-3-4-3h-2c-5-1-4-9-3-12Zm328 152ZM220 785c20-2 41-2 61-1 2 5 7 9 13 10-5 6-5 15-2 22a29 29 0 0 0-15 41c-4 3-6 9-6 14 1 6 4 11 7 16 3 6 3 11 4 17 2 8 8 14 16 17l-1 2c-2 7-4 16-10 21-7 7-18 7-28 8h-1l-26 1-6 1c-11 0-20 0-29-6-13-11-22-29-28-45-12-34-13-71-7-106 19-6 39-10 58-12Zm168 55c-4 1-7 4-8 8-2 6-1 11-4 17-4 5-6 9-7 16l-1 8v2l-1 6 3 4c7 2 12-3 13-9 2-5 0-11 2-16l4-7c2-3 2-6 2-9 1-5-4-12-2-17 1-1 0-3-1-3Zm85-56c-4-1-9-3-13-2-3 1-4 4-2 6 3 3 8 3 12 4h1a841 841 0 0 0 74 10l4 1c9 0 18 1 26-1v-2c-9-3-19-3-29-5a964 964 0 0 1-73-11Zm-156-9c3-2 8-4 12-3 7 1 13 8 19 13l-3-1c-14-3-34-6-46 4v-1l-3-3-1-1v-1h1l8-3 13-4Zm118-303c1-8-11-8-11 0-2 16 2 33 10 47v1a235 235 0 0 1-35 15c-7 2-14 2-20 7-11 8-6 27-4 38v2c1 6 2 13-1 18-2 7-8 11-13 16l-1 1-13 14c-2-6-6-11-11-17-3-4-1-5 2-9 2-4 3-8 2-12-1-8-7-13-14-18l-23-13a319 319 0 0 1-46-33c11 17 24 31 40 44l20 13 2 1c2 2 6 4 7 7s-2 5-3 8c-4 8-2 15 3 22 6 7 10 13 11 21 5 18-1 37-7 53v1l-10 27-1 3c-2 8-4 17-1 25 1 3 5 4 6 1 6-10 8-21 11-32l12-32c4-13 7-28 5-42h1l1-3c3-7 6-13 12-18 5-6 12-11 16-17 11-15 4-32 3-48v-2c0-3 0-8 2-10 2-3 8-3 11-5a186 186 0 0 0 47-24l3-2c6-5 11-9 15-15l-1-1c-6 2-12 6-17 10l-1-1c-7-13-10-27-9-41Zm-195 87c-2-6-13-6-13 2 1 6 3 12 6 17v1a210 210 0 0 0 31 45c7 8 17 12 28 12l13-4c5-3 10-11 16-9l1-1c-7-6-15 3-22 5-10 3-21 0-28-9a283 283 0 0 1-27-43l-5-16Zm17-41c0-1-1-2-2-1l-13 11-14 11c-7 6 1 16 7 10 9-8 18-19 22-31Zm26-32c-2-7-13-4-12 3 3 12-1 24-10 32h-1c-6 5 3 14 9 9 13-10 18-28 14-44Z" clip-rule="evenodd"/>
	<path fill="#fff" fill-rule="evenodd" d="M163 304c3-19 0-58 0-61-2-15 6-75 19-69 23-18 53-22 81-24 58-4 120 5 165 44 23 21 44 50 43 81 20 29 48 70 23 104-8 11-22 15-33 23-22 18-35 43-57 60-58 52-156 63-213 4-44-43-37-107-30-162 6-37-2 37 2 0Z" clip-rule="evenodd"/>
	<path fill="#000" fill-rule="evenodd" d="M341 70c-16-4-32-5-48-5h-1c-12 1-27 2-38 9l-2-1-39 15c-13 4-27 7-41 8-5 0-9 6-6 11l2 3h-3c-5 0-9 4-8 8v8h-4c-8 4-7 13-7 20 1 9 5 19 11 27a48 48 0 0 0-13 35l1 2c0 6 1 13 6 17 2 2 5 3 7 3l-3 42-1 6c-2 33-3 65-3 98 0 30 6 60 25 84a121 121 0 0 0 114 47l21-5c8-3 13-7 18-14 3-2 2-9-3-8l-21 4h-1a104 104 0 0 1-66 0c-24-7-44-24-57-44-15-25-17-53-16-81l3-93v-5a5816 5816 0 0 0 3-63c6-3 11-8 15-14l20 7c15 3 31 4 47 2a137 137 0 0 0 16 6c10 5 21 8 32 11l2 1 19 3 3 1c6 1 11 2 17 1 6 0 10-6 7-11l-7-12a217 217 0 0 0 50 15l13 3c4 0 9 1 11 3 3 2 4 8 5 11a290 290 0 0 1 14 68l1 28c0 5 6 7 9 4l2-1 1-1a68 68 0 0 0 10-12h1c8-6 22-14 29-4 3 3 4 7 5 11l2 7c1 4 3 9 3 14 2 10 1 22-6 31-3 3-7 5-11 6h-15c-4-1-6 4-4 7l2 4-2 2-6 5-2 6-1 1-2 4-1 2-19 23-22 19-1 1c-6 7-13 15-10 24 0 3 4 5 6 3 7-5 11-14 17-21l20-19c6-7 11-14 15-22 1 2 3 3 6 3 5 1 10-2 12-6l4 1c8 3 13-6 10-12l-6-9c7-1 15-5 20-9 12-12 14-30 11-46a121 121 0 0 0-9-30h1l6-9 5-10 4-21a172 172 0 0 0-27-110l2-1v-1h1c4-4 3-10 0-13l-1-2a29 29 0 0 0-6-4l1-8c-3-9-17-9-26-5-10-9-21-16-33-22-28-15-59-25-90-31Zm145 256c-5-2-12 1-17 4-6 2-11 6-16 11-3 2-3 5-2 8v1c0 3 4 6 7 6 7 0 10-6 14-11l1 2 1 1 5 2 4-2c3-1 5-5 4-9l-3-5 4-3v-1c1-1 0-4-2-4Z" clip-rule="evenodd"/>
	<path fill="#000" fill-rule="evenodd" d="M145 336c12 13 32 17 48 10 42-17 21-72-11-86l-14-4h-2c-36 4-44 59-21 80m133 4c14 18 39 23 60 15 41-16 26-64-2-83-59-22-83 34-58 68m89-40v-1 1m-250-20c3 0 8 1 10 3 7-23 32-44 54-29 17 6 30 18 37 34 14-7 34-4 45 6 8-24 26-33 48-34 24-4 47 19 55 38 6-1 15-3 21 1 37-10 103-16 111-10 5 2 8 15 0 15-6 0 1-9-5-10-36-2-70 5-106 8-3 4-13 6-18 4 8 31-10 53-38 59-42 10-80-28-68-68-13-6-28-6-42-3 23 87-116 83-94-8-15 7-18-4-10-6" clip-rule="evenodd"/>
	<path fill="#000" fill-rule="evenodd" d="M253 448c-7-1-16-5-23-2-3 2-5 7-2 10 3 5 7 6 12 6h14c8-1 15-3 21-8 2-1 1-3-1-4l-21-2Zm9-17c0-1 0-1 0 0Zm-24-90c-7 5-19 16-11 27 10 10 24-1 30-7 7-4 14 7 8 11-49 37-69-29-31-36 5-1 6 4 4 5Zm-38-51-5 2-5 4c-2 4-3 9-3 15s1 11 3 15l5 5 5 1 5-1 4-5c2-4 3-9 3-15s-1-11-3-15l-4-4-5-2Zm82 6h-1c-4-1-6-1-9 2-3 2-2 6 0 8 3 4 6 3 10 3h14c0 10 6 17 13 22 4 3 10-1 11-5 2-3 2-8 1-12l-1-4h-1l1-1 19-2h2c5-1 13-1 18-5-3-2-5-2-8-2h-12l-23-1h-4l-4-1h-3l-9-1h-3l-11-1Zm-48-69c-9-4-19-4-27-1l-1 1c-8 3-19 12-17 22 2 9 17 8 18-1 5-7 16-8 22-4 4 2 7 7 9 11s2 8 5 12c7-2 8-14 6-20-1-8-7-16-15-20Z" clip-rule="evenodd"/>
</svg>
