<svg fill="#FFFFFF" xmlns="http://www.w3.org/2000/svg"  viewBox="0 0 72 72" width="64px" height="64px"><path d="M 36 12 C 22.745 12 12 22.745 12 36 C 12 49.255 22.745 60 36 60 C 49.255 60 60 49.255 60 36 C 60 22.745 49.255 12 36 12 z M 36 20 C 44.837 20 52 27.163 52 36 C 52 44.837 44.837 52 36 52 C 27.163 52 20 44.837 20 36 C 20 27.163 27.163 20 36 20 z M 36 22 C 34.343 22 33 23.343 33 25 L 33 33 L 27 33 C 25.343 33 24 34.343 24 36 C 24 37.657 25.343 39 27 39 L 36 39 C 37.657 39 39 37.657 39 36 L 39 25 C 39 23.343 37.657 22 36 22 z"/></svg>