<?xml version="1.0" standalone="no"?>
<!DOCTYPE svg PUBLIC "-//W3C//DTD SVG 20010904//EN"
 "http://www.w3.org/TR/2001/REC-SVG-20010904/DTD/svg10.dtd">
<svg version="1.0" xmlns="http://www.w3.org/2000/svg"
 width="260.000000pt" height="260.000000pt" viewBox="0 0 260.000000 260.000000"
 preserveAspectRatio="xMidYMid meet">
<metadata>
Created by potrace 1.14, written by Peter Selinger 2001-2017
</metadata>
<g transform="translate(0.000000,260.000000) scale(0.100000,-0.100000)"
fill="#000000" stroke="none">
<path d="M82 2563 c-18 -9 -40 -29 -48 -45 -16 -30 -15 -35 6 -208 5 -41 12
-97 15 -125 3 -27 7 -66 10 -85 2 -19 7 -62 10 -95 4 -33 8 -71 10 -85 2 -14
7 -50 10 -80 11 -100 16 -145 20 -170 2 -14 7 -50 10 -80 4 -30 8 -68 10 -85
2 -16 6 -57 10 -90 7 -64 14 -124 20 -165 2 -14 6 -52 10 -85 3 -33 10 -94 15
-135 5 -41 12 -100 15 -130 3 -30 10 -89 15 -130 14 -113 19 -160 25 -215 6
-55 13 -112 20 -165 3 -19 7 -60 10 -90 3 -30 8 -68 10 -85 2 -16 7 -52 10
-80 8 -61 25 -89 67 -111 29 -15 117 -16 938 -16 821 0 909 1 938 16 53 27 64
55 77 191 6 62 13 121 20 160 2 17 7 55 10 85 12 116 34 305 40 350 2 14 6 50
9 80 6 56 12 105 21 175 5 40 9 78 20 170 3 28 7 68 10 90 13 111 16 133 20
175 3 25 7 61 10 80 7 51 12 96 20 175 4 39 9 78 11 88 2 10 6 48 9 85 3 37 8
74 10 82 2 8 7 49 10 90 4 41 8 77 10 80 2 3 6 39 10 80 4 41 8 77 10 80 1 3
6 39 9 80 7 89 -3 117 -54 142 -33 17 -112 18 -1220 18 -1074 0 -1188 -2
-1218 -17z m2363 -105 c-4 -21 -46 -373 -70 -588 -5 -46 -11 -97 -20 -172 -3
-24 -7 -59 -10 -78 -2 -19 -7 -60 -10 -90 -4 -30 -8 -66 -10 -80 -2 -14 -7
-54 -10 -89 -3 -35 -8 -78 -10 -95 -2 -17 -7 -56 -10 -86 -4 -30 -8 -66 -10
-80 -2 -14 -6 -50 -10 -80 -3 -30 -10 -89 -15 -130 -5 -41 -12 -100 -15 -130
-3 -30 -10 -89 -15 -130 -11 -88 -18 -148 -25 -210 -3 -25 -7 -61 -10 -80 -2
-19 -9 -79 -16 -132 -7 -59 -16 -98 -23 -98 -79 -2 -1720 0 -1721 2 -3 3 -11
66 -31 238 -3 25 -9 79 -14 120 -5 41 -12 100 -16 130 -3 30 -7 66 -9 80 -1
14 -6 52 -9 85 -4 33 -9 71 -11 85 -2 14 -7 57 -11 95 -3 39 -8 78 -10 88 -2
10 -6 48 -10 85 -3 36 -7 74 -9 84 -2 9 -7 48 -11 85 -3 37 -8 75 -9 83 -2 8
-6 44 -10 80 -4 36 -8 76 -11 89 -2 14 -6 54 -10 90 -3 36 -7 73 -9 83 -2 9
-7 48 -10 85 -4 37 -9 70 -10 73 -2 3 -6 46 -10 95 -4 50 -9 92 -10 95 -2 3
-6 33 -10 65 -3 33 -8 74 -10 90 -2 17 -7 59 -11 95 -3 36 -10 86 -14 112 -4
26 -5 50 -2 53 3 3 520 5 1149 5 l1143 0 -5 -22z"/>
<path d="M679 1556 c-2 -2 -26 -6 -54 -10 -50 -6 -136 -27 -187 -47 -19 -8
-25 -16 -23 -32 2 -12 9 -69 15 -127 6 -58 13 -123 15 -145 13 -110 16 -138
25 -240 6 -60 12 -121 15 -135 3 -24 14 -128 20 -195 2 -16 6 -57 10 -90 10
-94 13 -125 21 -204 4 -41 10 -86 13 -100 l7 -25 743 0 c409 -1 747 1 751 4 4
3 11 28 14 55 6 47 8 68 21 190 3 28 8 66 10 85 3 19 7 55 10 80 3 25 7 61 10
80 2 19 7 64 11 100 7 66 8 76 19 165 10 79 14 116 20 175 3 30 10 89 15 130
5 41 12 104 16 140 4 36 8 68 11 72 2 4 -25 -3 -60 -16 -99 -36 -191 -50 -332
-50 -180 -1 -287 12 -460 56 -44 11 -88 22 -98 24 -10 2 -26 5 -35 8 -9 3 -30
8 -47 11 -16 3 -66 12 -110 21 -73 14 -375 30 -386 20z"/>
</g>
</svg>
